<svg width="143" height="24" viewBox="0 0 143 24" fill="none" xmlns="http://www.w3.org/2000/svg">
<path d="M17.81 18.5H8.03L5.3 23H0.11L13.7 2H18.5L23.66 23H18.8L17.81 18.5ZM17 14.81L15.23 6.71L10.28 14.81H17ZM45.0423 0.739999L40.6023 23H36.1623L36.4923 21.38C35.1323 22.62 33.4823 23.24 31.5423 23.24C30.2823 23.24 29.1223 22.95 28.0623 22.37C27.0023 21.79 26.1523 20.96 25.5123 19.88C24.8923 18.78 24.5823 17.49 24.5823 16.01C24.5823 14.23 24.9723 12.63 25.7523 11.21C26.5523 9.77 27.6323 8.65 28.9923 7.85C30.3523 7.03 31.8523 6.62 33.4923 6.62C34.6723 6.62 35.7023 6.82 36.5823 7.22C37.4823 7.62 38.1923 8.21 38.7123 8.99L40.3623 0.739999H45.0423ZM32.9823 19.37C33.9023 19.37 34.7223 19.15 35.4423 18.71C36.1623 18.25 36.7223 17.62 37.1223 16.82C37.5223 16.02 37.7223 15.1 37.7223 14.06C37.7223 12.96 37.3923 12.09 36.7323 11.45C36.0923 10.81 35.1923 10.49 34.0323 10.49C33.1123 10.49 32.2923 10.72 31.5723 11.18C30.8523 11.62 30.2923 12.24 29.8923 13.04C29.4923 13.84 29.2923 14.76 29.2923 15.8C29.2923 16.9 29.6123 17.77 30.2523 18.41C30.9123 19.05 31.8223 19.37 32.9823 19.37ZM64.6137 0.739999L60.1737 23H55.7337L56.0637 21.38C54.7037 22.62 53.0537 23.24 51.1137 23.24C49.8537 23.24 48.6937 22.95 47.6337 22.37C46.5737 21.79 45.7237 20.96 45.0837 19.88C44.4637 18.78 44.1537 17.49 44.1537 16.01C44.1537 14.23 44.5437 12.63 45.3237 11.21C46.1237 9.77 47.2037 8.65 48.5637 7.85C49.9237 7.03 51.4237 6.62 53.0637 6.62C54.2437 6.62 55.2737 6.82 56.1537 7.22C57.0537 7.62 57.7637 8.21 58.2837 8.99L59.9337 0.739999H64.6137ZM52.5537 19.37C53.4737 19.37 54.2937 19.15 55.0137 18.71C55.7337 18.25 56.2937 17.62 56.6937 16.82C57.0937 16.02 57.2937 15.1 57.2937 14.06C57.2937 12.96 56.9637 12.09 56.3037 11.45C55.6637 10.81 54.7637 10.49 53.6037 10.49C52.6837 10.49 51.8637 10.72 51.1437 11.18C50.4237 11.62 49.8637 12.24 49.4637 13.04C49.0637 13.84 48.8637 14.76 48.8637 15.8C48.8637 16.9 49.1837 17.77 49.8237 18.41C50.4837 19.05 51.3937 19.37 52.5537 19.37ZM69.8452 5.3H62.8852V2H80.7052V5.3H73.7452V23H69.8452V5.3ZM85.2612 9.32C86.3412 7.64 88.2412 6.8 90.9612 6.8V10.37C90.6412 10.31 90.3512 10.28 90.0912 10.28C88.6312 10.28 87.4912 10.71 86.6712 11.57C85.8512 12.41 85.4412 13.63 85.4412 15.23V23H81.6912V6.98H85.2612V9.32ZM98.9745 6.8C101.335 6.8 103.135 7.37 104.375 8.51C105.635 9.63 106.265 11.33 106.265 13.61V23H102.725V21.05C102.265 21.75 101.605 22.29 100.745 22.67C99.9045 23.03 98.8845 23.21 97.6845 23.21C96.4845 23.21 95.4345 23.01 94.5345 22.61C93.6345 22.19 92.9345 21.62 92.4345 20.9C91.9545 20.16 91.7145 19.33 91.7145 18.41C91.7145 16.97 92.2445 15.82 93.3045 14.96C94.3845 14.08 96.0745 13.64 98.3745 13.64H102.515V13.4C102.515 12.28 102.175 11.42 101.495 10.82C100.835 10.22 99.8445 9.92 98.5245 9.92C97.6245 9.92 96.7345 10.06 95.8545 10.34C94.9945 10.62 94.2645 11.01 93.6645 11.51L92.1945 8.78C93.0345 8.14 94.0445 7.65 95.2245 7.31C96.4045 6.97 97.6545 6.8 98.9745 6.8ZM98.4645 20.48C99.4045 20.48 100.235 20.27 100.955 19.85C101.695 19.41 102.215 18.79 102.515 17.99V16.13H98.6445C96.4845 16.13 95.4045 16.84 95.4045 18.26C95.4045 18.94 95.6745 19.48 96.2145 19.88C96.7545 20.28 97.5045 20.48 98.4645 20.48ZM117.374 23.21C115.714 23.21 114.224 22.86 112.904 22.16C111.584 21.46 110.554 20.49 109.814 19.25C109.074 17.99 108.704 16.57 108.704 14.99C108.704 13.41 109.074 12 109.814 10.76C110.554 9.52 111.574 8.55 112.874 7.85C114.194 7.15 115.694 6.8 117.374 6.8C118.954 6.8 120.334 7.12 121.514 7.76C122.714 8.4 123.614 9.32 124.214 10.52L121.334 12.2C120.874 11.46 120.294 10.91 119.594 10.55C118.914 10.17 118.164 9.98 117.344 9.98C115.944 9.98 114.784 10.44 113.864 11.36C112.944 12.26 112.484 13.47 112.484 14.99C112.484 16.51 112.934 17.73 113.834 18.65C114.754 19.55 115.924 20 117.344 20C118.164 20 118.914 19.82 119.594 19.46C120.294 19.08 120.874 18.52 121.334 17.78L124.214 19.46C123.594 20.66 122.684 21.59 121.484 22.25C120.304 22.89 118.934 23.21 117.374 23.21ZM132.649 16.13L129.859 18.77V23H126.109V0.739999H129.859V14.18L137.629 6.98H142.129L135.439 13.7L142.759 23H138.199L132.649 16.13Z" fill="white"/>
</svg>
